<svg width="354" height="354" viewBox="0 0 354 354" fill="none" xmlns="http://www.w3.org/2000/svg">
<g clip-path="url(#clip0)">
<path d="M52.5138 272.108C47.6262 260.551 44.0876 248.596 41.9159 236.349L31.746 246.519C29.8011 248.464 28.7079 251.102 28.7079 253.852C28.7079 256.603 29.8011 259.241 31.746 261.185L40.1597 269.599L9.16184 300.596C3.25376 306.507 0 314.362 0 322.718C0 331.074 3.25446 338.929 9.16253 344.837C15.0706 350.746 22.9271 354 31.2827 354C39.6384 354 47.4949 350.746 53.4029 344.837L80.9037 317.337C69.0599 303.856 59.5267 288.688 52.5138 272.108Z" fill="#69DEA3"/>
<path d="M350.962 3.03871C347.909 -0.0138601 343.286 -0.855995 339.353 0.922997L311.479 13.5343C310.341 14.0494 309.305 14.7657 308.421 15.65L271.717 52.3541C271.847 52.4087 271.978 52.4585 272.108 52.5138C285.55 58.1985 298.062 65.542 309.502 74.4272L338.35 45.5796C339.234 44.696 339.951 43.6603 340.466 42.5215L353.078 14.6474C354.857 10.7147 354.014 6.09127 350.962 3.03871Z" fill="#69DEA3"/>
<path d="M206.885 60.0806C125.807 60.0806 60.0805 125.807 60.0805 206.885C60.0805 287.963 125.807 353.69 206.885 353.69C287.963 353.69 353.69 287.963 353.69 206.885C353.69 125.807 287.963 60.0806 206.885 60.0806ZM206.885 294.223C158.65 294.223 119.546 255.12 119.546 206.884C119.546 158.648 158.649 119.546 206.885 119.546C255.121 119.546 294.224 158.648 294.224 206.884C294.224 255.12 255.121 294.223 206.885 294.223Z" fill="#69DEA3"/>
<path d="M261.456 191.409C260.237 187.654 256.991 184.917 253.084 184.35L227.588 180.645L216.186 157.541C214.439 154.001 210.833 151.76 206.886 151.76C202.938 151.76 199.333 154.001 197.586 157.541L186.184 180.645L160.687 184.35C156.781 184.917 153.535 187.654 152.315 191.408C151.095 195.163 152.112 199.284 154.939 202.04L173.388 220.024L169.033 245.417C168.366 249.308 169.965 253.241 173.159 255.561C176.353 257.882 180.587 258.188 184.081 256.351L206.886 244.361L229.69 256.351C231.208 257.148 232.865 257.542 234.516 257.542C236.666 257.542 238.806 256.875 240.613 255.562C243.806 253.242 245.406 249.309 244.738 245.418L240.383 220.025L258.833 202.04C261.659 199.285 262.677 195.164 261.456 191.409Z" fill="#69DEA3"/>
</g>
<defs>
<clipPath id="clip0">
<rect width="354" height="354" fill="white"/>
</clipPath>
</defs>
</svg>
